# xmcd CD database file
#
# Track frame offsets:
#	150
#	5485
#	24164
#	43595
#	62793
#	84251
#	101965
#	125986
#	147820
#	169588
#	202756
#	222779
#	248284
#	268077
#	272392
#	296622
#
# Disc length: 4553 seconds
#
# Revision: 22
# Processed by: cddbd v1.5.1PL2 Copyright (c) Steve Scherf et al.
# Submitted via: CDex 1.51
#
DISCID=d911c710
DTITLE=浜崎あゆみ - LOVEppears Disc1
DYEAR=1999
DGENRE=J-Pop
TTITLE0=Introduction
TTITLE1=Fly high
TTITLE2=Trauma
TTITLE3=And Then
TTITLE4=immature
TTITLE5=Boys and Girls
TTITLE6=TO BE
TTITLE7=End roll
TTITLE8=P.S II
TTITLE9=WHATEVER ''Dub's 1999 Club Remix"
TTITLE10=too late
TTITLE11=appears ''Album Version''
TTITLE12=monochrome
TTITLE13=Interlude
TTITLE14=LOVE 〜refrain〜
TTITLE15=Who...
EXTD=YEAR: 1999
EXTT0=
EXTT1=
EXTT2=
EXTT3=
EXTT4=
EXTT5=
EXTT6=
EXTT7=
EXTT8=
EXTT9=
EXTT10=
EXTT11=
EXTT12=
EXTT13=
EXTT14=
EXTT15=
PLAYORDER=
